<?xml version="1.0" encoding="UTF-8"?><svg id="Layer_1" xmlns="http://www.w3.org/2000/svg" viewBox="0 0 2044.42 385.87"><path d="M0,192.93c0,106.55,86.38,192.93,192.93,192.93v-100.87c-50.85,0-92.07-41.22-92.07-92.07s41.22-92.07,92.07-92.07V0C86.38,0,0,86.38,0,192.93Z"/><path d="M285,192.93c0-50.85-41.22-92.07-92.07-92.07v184.13c50.85,0,92.07-41.22,92.07-92.07Z"/><g><path d="M406.88,86.78h44.72v170.18h103.03l-5.11,36.66h-142.64V86.78Z"/><path d="M723.63,215.67c0,46.98-28.12,81.54-77.31,81.54s-76.26-34.36-76.26-80.71,28.98-81.77,78.29-81.77c45.71,0,75.28,32.26,75.28,80.94Zm-109.94,.3c0,29.89,12.86,47.6,33.57,47.6s32.74-17.72,32.74-47.33c0-32.5-11.93-47.86-33.34-47.86-19.94,0-32.97,14.77-32.97,47.6Z"/><path d="M881.03,253.49c0,14.79,1.2,36.38,2.1,40.12h-41.07c-1.2-3.07-2.1-11.26-2.17-15.18-5.63,8.72-16.19,18.78-43.65,18.78-37.44,0-53.23-24.61-53.23-48.7,0-35.38,28.41-51.7,73.93-51.7h22.16v-9.49c0-11.04-3.97-21.9-23.91-21.9-18.15,0-22.12,7.71-24.1,18.96h-40.88c2.33-27.59,19.4-49.92,66.61-49.66,41.6,.26,64.23,16.51,64.23,53.48v65.29Zm-41.9-30.57h-17.52c-25.91,0-35.51,7.91-35.51,22.88,0,11.24,6.9,20.71,22.35,20.71,27.32,0,30.68-18.99,30.68-39.51v-4.08Z"/><path d="M920.21,177.45c0-13.2,0-27.65-.3-39.12h41.64c.86,4.01,1.43,14.79,1.66,19.79,5.28-9.75,17.84-23.39,45.05-23.39,31.19,0,51.46,21.07,51.46,60.1v98.79h-43v-94.01c0-17.46-5.82-30.1-24.79-30.1s-28.72,10.16-28.72,37.58v86.54h-43v-116.16Z"/><path d="M1132.04,225.16c.04,19.42,9.76,38.4,31.17,38.4,17.9,0,23.01-7.18,27.09-16.58h43.03c-5.51,19.01-22.46,50.22-71.25,50.22s-73.34-38.24-73.34-78.99c0-48.71,25-83.5,74.87-83.5,53.33,0,71.46,38.58,71.46,77.34,0,5.26,0,8.66-.56,13.09h-102.48Zm59.98-26.41c-.3-18.08-7.52-33.29-28.47-33.29s-28.89,14.21-30.61,33.29h59.08Z"/><path d="M1409.51,74.62V250.94c0,14.14,0,28.46,.3,42.67h-41.34c-.86-4.66-1.69-12.68-1.96-16.22-7.5,12.23-20.87,19.82-44.06,19.82-39.26,0-64.25-31.54-64.25-79.97s26.56-82.51,70.53-82.51c22.34,0,34.34,7.88,37.79,14.84V74.62h43Zm-107.15,141.49c0,30.27,11.79,46.66,32.84,46.66,29.56,0,32.97-24.66,32.97-46.97,0-26.55-3.75-46.64-31.85-46.64-22.57,0-33.95,17.63-33.95,46.95Z"/></g><text/></svg>